<svg xmlns="http://www.w3.org/2000/svg" xmlns:xlink="http://www.w3.org/1999/xlink" xmlns:sketch="http://www.bohemiancoding.com/sketch/ns" viewBox="0 0 41 47.5" version="1.1" x="0px" y="0px"><title>Toggle Menu</title><desc>Created with Sketch.</desc><g stroke="none" stroke-width="1" fill="none" fill-rule="evenodd" sketch:type="MSPage"><path d="M38.7,31.1 L10.5,31.1 C9.9,29 7.9,27.5 5.6,27.5 C2.8,27.5 0.5,29.8 0.5,32.6 C0.5,35.4 2.8,37.7 5.6,37.7 C7.9,37.7 9.8,36.2 10.5,34.1 L38.6,34.1 C39.4,34.1 40.1,33.4 40.1,32.6 C40.1,31.8 39.5,31.1 38.7,31.1 L38.7,31.1 Z M7.2,34.1 C6.8,34.5 6.3,34.7 5.7,34.7 C4.5,34.7 3.6,33.7 3.6,32.6 C3.6,31.5 4.6,30.5 5.7,30.5 C6.3,30.5 6.8,30.7 7.2,31.1 C7.6,31.5 7.8,32 7.8,32.6 L7.8,32.6 C7.8,33.2 7.6,33.7 7.2,34.1 L7.2,34.1 Z M5.7,11 C8,11 9.9,9.5 10.6,7.4 L38.7,7.4 C39.5,7.4 40.2,6.7 40.2,5.9 C40.2,5.1 39.5,4.4 38.7,4.4 L10.5,4.4 C9.9,2.3 7.9,0.8 5.6,0.8 C2.8,0.8 0.5,3.1 0.5,5.9 C0.5,8.7 2.8,11 5.7,11 L5.7,11 Z M5.7,3.8 C6.3,3.8 6.8,4 7.2,4.4 C7.6,4.8 7.8,5.3 7.8,5.9 L7.8,5.9 C7.8,6.5 7.6,7 7.2,7.4 C6.8,7.8 6.3,8 5.7,8 C4.5,8 3.6,7 3.6,5.9 C3.6,4.8 4.5,3.8 5.7,3.8 L5.7,3.8 Z M38.7,17.8 L27,17.8 C26.4,15.7 24.4,14.2 22.1,14.2 C19.8,14.2 17.9,15.7 17.2,17.8 L5.7,17.8 C4.9,17.8 4.2,18.5 4.2,19.3 C4.2,20.1 4.9,20.8 5.7,20.8 L17.3,20.8 C17.9,22.9 19.9,24.4 22.2,24.4 C24.5,24.4 26.4,22.9 27.1,20.8 L38.7,20.8 C39.5,20.8 40.2,20.1 40.2,19.3 C40.2,18.5 39.5,17.8 38.7,17.8 L38.7,17.8 Z M23.7,20.8 C23.3,21.2 22.8,21.4 22.2,21.4 C21.6,21.4 21.1,21.2 20.7,20.8 C20.3,20.4 20.1,19.9 20.1,19.3 L20.1,19.3 C20.1,18.7 20.3,18.2 20.7,17.8 C21.1,17.4 21.6,17.2 22.2,17.2 C22.8,17.2 23.3,17.4 23.7,17.8 C24.1,18.2 24.3,18.7 24.3,19.3 L24.3,19.3 C24.3,19.8 24.1,20.4 23.7,20.8 L23.7,20.8 Z" fill="#000000" sketch:type="MSShapeGroup"/></g></svg>